<?xml version="1.0" standalone="no"?>
<!DOCTYPE svg PUBLIC "-//W3C//DTD SVG 1.1//EN" "http://www.w3.org/Graphics/SVG/1.1/DTD/svg11.dtd" >
<svg xmlns="http://www.w3.org/2000/svg">
<metadata>Generated by IcoMoon</metadata>
<defs>
<font id="Server" horiz-adv-x="1024">
<font-face units-per-em="1024" ascent="960" descent="-64" />
<missing-glyph horiz-adv-x="1024" />
<glyph unicode="&#x20;" horiz-adv-x="512" d="" />
<glyph unicode="&#xe600;" glyph-name="active-directory" d="M635.733 98.133c0-72.533-51.2-123.733-119.467-123.733s-119.467 51.2-115.2 123.733c0 17.067 0 25.6-12.8 34.133-64 46.933-123.733 93.867-183.467 145.067-12.8 8.533-21.333 8.533-38.4 4.267-72.533-25.6-140.8 8.533-157.867 81.067-17.067 68.267 25.6 128 98.133 145.067 12.8 4.267 25.6 4.267 34.133 0 29.867-17.067 51.2 0 72.533 21.333 51.2 68.267 110.933 136.533 170.667 200.533 12.8 12.8 17.067 25.6 12.8 46.933-12.8 93.867 59.733 162.133 149.333 140.8 59.733-12.8 102.4-76.8 85.333-140.8-8.533-25.6 0-38.4 17.067-59.733 59.733-64 119.467-132.267 179.2-200.533 17.067-17.067 29.867-25.6 55.467-17.067 64 17.067 123.733-21.333 140.8-81.067 17.067-68.267-8.533-123.733-72.533-145.067-29.867-12.8-59.733-8.533-85.333 8.533-17.067 8.533-25.6 8.533-38.4-4.267-55.467-46.933-115.2-93.867-174.933-140.8-21.333-8.533-17.067-21.333-17.067-38.4zM482.133 435.2c0 72.533 0 140.8 0 213.333 0 12.8 4.267 25.6-8.533 29.867-17.067 8.533-21.333-8.533-29.867-17.067-59.733-55.467-115.2-115.2-174.933-174.933-25.6-25.6-46.933-46.933-29.867-85.333 4.267-8.533 4.267-25.6 0-34.133-8.533-21.333 0-29.867 17.067-42.667 55.467-42.667 110.933-89.6 162.133-132.267 8.533-8.533 17.067-21.333 38.4-8.533 17.067 12.8 29.867 17.067 29.867 42.667-4.267 72.533-4.267 140.8-4.267 209.067zM546.133 443.733c0-68.267 4.267-136.533 0-204.8 0-29.867 17.067-38.4 34.133-51.2s25.6 4.267 34.133 12.8c38.4 29.867 72.533 59.733 106.667 85.333 38.4 29.867 89.6 59.733 72.533 123.733 0 0 0 4.267 0 8.533 8.533 17.067 0 25.6-8.533 38.4-68.267 72.533-132.267 140.8-200.533 213.333-8.533 8.533-17.067 17.067-29.867 12.8-17.067-4.267-12.8-17.067-12.8-29.867 4.267-68.267 4.267-140.8 4.267-209.067z" />
<glyph unicode="&#xe601;" glyph-name="add" d="M418.133 870.4c0-281.6 0-558.933 0-840.533 0-123.733 187.733-123.733 187.733 0 0 281.6 0 558.933 0 840.533 0 119.467-187.733 119.467-187.733 0v0zM934.4 541.867c-281.6 0-558.933 0-840.533 0-123.733 0-123.733-187.733 0-187.733 281.6 0 558.933 0 840.533 0 119.467 0 119.467 187.733 0 187.733v0z" />
<glyph unicode="&#xe602;" glyph-name="back" d="M512 960c-281.6 0-512-230.4-512-512s230.4-512 512-512c281.6 0 512 230.4 512 512s-230.4 512-512 512zM584.533 221.867c0-38.4-21.333-51.2-51.2-21.333l-183.467 187.733c-29.867 29.867-29.867 72.533 0 102.4l183.467 187.733c29.867 29.867 51.2 17.067 51.2-21.333v-435.2z" />
<glyph unicode="&#xe603;" glyph-name="calendar-1" d="M738.133 460.8c12.8-12.8 29.867-21.333 46.933-21.333s34.133 8.533 46.933 21.333c12.8 12.8 21.333 29.867 21.333 46.933s-8.533 34.133-21.333 46.933v0c-12.8 12.8-29.867 21.333-46.933 21.333s-34.133-8.533-46.933-21.333v0c-12.8-12.8-21.333-29.867-21.333-46.933s8.533-34.133 21.333-46.933v0zM772.267 524.8v0 0c4.267 4.267 8.533 4.267 12.8 4.267s8.533-4.267 12.8-4.267v0c4.267-4.267 4.267-8.533 4.267-12.8s0-8.533-4.267-12.8-8.533-8.533-12.8-8.533c-4.267 0-8.533 4.267-12.8 4.267-4.267 4.267-4.267 8.533-4.267 12.8-4.267 8.533 0 12.8 4.267 17.067v0zM554.667 460.8v0c12.8-12.8 29.867-21.333 46.933-21.333s34.133 8.533 46.933 21.333c12.8 12.8 21.333 29.867 21.333 46.933s-8.533 34.133-21.333 46.933v0c-8.533 12.8-25.6 21.333-46.933 21.333-17.067 0-34.133-8.533-46.933-21.333s-21.333-29.867-21.333-46.933c4.267-17.067 8.533-34.133 21.333-46.933v0zM588.8 524.8v0 0c4.267 4.267 8.533 4.267 12.8 4.267s8.533-4.267 12.8-4.267v0c4.267-4.267 4.267-8.533 4.267-12.8s0-8.533-4.267-12.8c0-8.533-4.267-8.533-12.8-8.533-4.267 0-8.533 4.267-12.8 4.267-4.267 4.267-4.267 8.533-4.267 12.8 0 8.533 0 12.8 4.267 17.067v0zM554.667 285.867v0c12.8-12.8 29.867-21.333 46.933-21.333s34.133 8.533 46.933 21.333v0c12.8 12.8 21.333 29.867 21.333 46.933s-8.533 34.133-21.333 46.933v0c-12.8 12.8-29.867 21.333-46.933 21.333s-34.133-8.533-46.933-21.333v0c-12.8-12.8-21.333-29.867-21.333-46.933 4.267-21.333 8.533-38.4 21.333-46.933v0 0zM588.8 345.6v0 0c4.267 4.267 8.533 4.267 12.8 4.267s8.533-4.267 12.8-4.267v0c4.267-4.267 4.267-8.533 4.267-12.8s0-8.533-4.267-12.8v0c-4.267-4.267-8.533-4.267-12.8-4.267s-8.533 0-12.8 4.267v0c-4.267 4.267-4.267 8.533-4.267 12.8s0 8.533 4.267 12.8v0zM554.667 106.667v0c12.8-12.8 29.867-21.333 46.933-21.333s34.133 8.533 46.933 21.333v0c12.8 12.8 21.333 29.867 21.333 46.933s-8.533 34.133-21.333 46.933v0c-12.8 12.8-29.867 21.333-46.933 21.333s-34.133-8.533-46.933-21.333c-12.8-12.8-21.333-29.867-21.333-46.933 4.267-17.067 8.533-34.133 21.333-46.933v0zM588.8 166.4v0 0c4.267 4.267 8.533 4.267 12.8 4.267s8.533 0 12.8-4.267v0c4.267-4.267 4.267-8.533 4.267-12.8s0-8.533-4.267-12.8v0c-4.267-4.267-8.533-4.267-12.8-4.267s-8.533 0-12.8 4.267v0c-4.267 4.267-4.267 8.533-4.267 12.8s0 8.533 4.267 12.8v0zM192 285.867v0c12.8-12.8 29.867-21.333 46.933-21.333s34.133 8.533 46.933 21.333v0c12.8 12.8 21.333 29.867 21.333 46.933s-8.533 34.133-21.333 46.933v0c-12.8 12.8-29.867 21.333-46.933 21.333s-34.133-8.533-46.933-21.333v0c-12.8-12.8-21.333-29.867-21.333-46.933 0-21.333 8.533-38.4 21.333-46.933v0 0zM226.133 345.6v0 0c4.267 4.267 8.533 4.267 12.8 4.267s8.533-4.267 12.8-4.267v0c4.267-4.267 4.267-8.533 4.267-12.8s0-8.533-4.267-12.8v0c-4.267-4.267-8.533-4.267-12.8-4.267s-8.533 0-12.8 4.267v0c-4.267 4.267-4.267 8.533-4.267 12.8-4.267 4.267 0 8.533 4.267 12.8v0zM192 106.667v0c12.8-12.8 29.867-21.333 46.933-21.333s34.133 8.533 46.933 21.333v0c12.8 12.8 21.333 29.867 21.333 46.933s-8.533 34.133-21.333 46.933v0c-12.8 12.8-29.867 21.333-46.933 21.333s-34.133-8.533-46.933-21.333v0c-12.8-12.8-21.333-29.867-21.333-46.933s8.533-34.133 21.333-46.933v0 0zM226.133 166.4v0 0c4.267 4.267 8.533 4.267 12.8 4.267s8.533 0 12.8-4.267v0c4.267-4.267 4.267-8.533 4.267-12.8s0-8.533-4.267-12.8v0c-4.267-4.267-8.533-4.267-12.8-4.267s-8.533 0-12.8 4.267v0c-4.267 4.267-4.267 8.533-4.267 12.8-4.267 4.267 0 8.533 4.267 12.8v0zM375.467 460.8v0c8.533-12.8 25.6-17.067 46.933-17.067 17.067 0 34.133 8.533 46.933 21.333s21.333 29.867 21.333 46.933c0 17.067-8.533 34.133-21.333 46.933-12.8 8.533-29.867 17.067-46.933 17.067-21.333 0-38.4-8.533-46.933-17.067v0c-12.8-12.8-21.333-29.867-21.333-46.933 0-21.333 8.533-38.4 21.333-51.2v0 0zM405.333 524.8v0 0c4.267 4.267 8.533 4.267 12.8 4.267s8.533-4.267 12.8-4.267v0c4.267-4.267 4.267-8.533 4.267-12.8s0-8.533-4.267-12.8c0-8.533-4.267-8.533-8.533-8.533s-8.533 4.267-12.8 4.267c-4.267 4.267-4.267 8.533-4.267 12.8-4.267 8.533 0 12.8 0 17.067v0zM985.6 960v0h-947.2c-21.333 0-38.4-17.067-38.4-38.4v-942.933c0-25.6 17.067-42.667 38.4-42.667h942.933c21.333 0 38.4 17.067 38.4 38.4v947.2c4.267 21.333-12.8 38.4-34.133 38.4v0zM942.933 12.8v0h-866.133v640h866.133v-640zM942.933 699.733v0h-866.133v183.467h76.8v-59.733c0-21.333 17.067-38.4 38.4-38.4s38.4 17.067 38.4 38.4v59.733h132.267v-59.733c0-21.333 17.067-38.4 38.4-38.4s38.4 17.067 38.4 38.4v59.733h132.267v-59.733c0-21.333 17.067-38.4 38.4-38.4s38.4 17.067 38.4 38.4v59.733h132.267v-59.733c0-21.333 17.067-38.4 38.4-38.4s38.4 17.067 38.4 38.4v59.733h76.8v-183.467h8.533zM375.467 106.667v0c12.8-12.8 29.867-21.333 46.933-21.333s34.133 8.533 46.933 21.333c12.8 12.8 21.333 29.867 21.333 46.933s-8.533 34.133-21.333 46.933c-12.8 12.8-29.867 21.333-46.933 21.333s-34.133-8.533-46.933-21.333v0c-12.8-12.8-21.333-29.867-21.333-46.933s8.533-34.133 21.333-46.933v0 0zM405.333 166.4v0 0c4.267 4.267 8.533 4.267 12.8 4.267s8.533 0 12.8-4.267v0c4.267-4.267 4.267-8.533 4.267-12.8s0-8.533-4.267-12.8v0c-4.267-4.267-8.533-4.267-12.8-4.267s-8.533 0-12.8 4.267v0c-4.267 4.267-4.267 8.533-4.267 12.8s4.267 8.533 4.267 12.8v0zM375.467 285.867v0c12.8-12.8 29.867-21.333 46.933-21.333s34.133 8.533 46.933 21.333v0c12.8 12.8 21.333 29.867 21.333 46.933s-8.533 34.133-21.333 46.933v0c-12.8 12.8-29.867 21.333-46.933 21.333s-34.133-8.533-46.933-21.333v0c-12.8-12.8-21.333-29.867-21.333-46.933 0-21.333 8.533-38.4 21.333-46.933v0 0zM405.333 345.6v0 0c4.267 4.267 8.533 4.267 12.8 4.267s8.533-4.267 12.8-4.267v0c4.267-4.267 4.267-8.533 4.267-12.8s0-8.533-4.267-12.8v0c-4.267-4.267-8.533-4.267-12.8-4.267s-8.533 0-12.8 4.267v0c-4.267 4.267-4.267 8.533-4.267 12.8s4.267 8.533 4.267 12.8v0zM738.133 285.867v0c12.8-12.8 29.867-21.333 46.933-21.333s34.133 8.533 46.933 21.333v0c12.8 12.8 21.333 29.867 21.333 46.933s-8.533 34.133-21.333 46.933v0c-12.8 12.8-29.867 21.333-46.933 21.333s-34.133-8.533-46.933-21.333v0c-12.8-12.8-21.333-29.867-21.333-46.933 0-21.333 8.533-38.4 21.333-46.933v0 0zM772.267 345.6v0 0c4.267 4.267 8.533 4.267 12.8 4.267s8.533-4.267 12.8-4.267v0c4.267-4.267 4.267-8.533 4.267-12.8s0-8.533-4.267-12.8v0c-4.267-4.267-8.533-4.267-12.8-4.267s-8.533 0-12.8 4.267v0c-4.267 4.267-4.267 8.533-4.267 12.8-4.267 4.267 0 8.533 4.267 12.8v0z" />
<glyph unicode="&#xe604;" glyph-name="calendar-2" d="M668.725 209.067v-153.6h213.333v153.6h-213.333zM404.192 209.067v-153.6h213.333v153.6h-213.333zM139.659 209.067v-153.6h213.333v153.6h-213.333zM668.725 418.133v-153.6h213.333v153.6h-213.333zM404.192 418.133v-153.6h213.333v153.6h-213.333zM139.659 418.133v-153.6h213.333v153.6h-213.333zM668.725 627.2v-153.6h213.333v153.6h-213.333zM404.192 627.2v-153.6h213.333v153.6h-213.333zM139.659 627.2v-153.6h213.333v153.6h-213.333zM88.459 900.267h85.333v-166.4h226.133v166.4h226.133v-166.4h226.133v166.4h85.333c46.933 0 85.333-38.4 85.333-85.333v-793.6c0-46.933-38.4-85.333-85.333-85.333h-849.067c-46.933 0-85.333 38.4-85.333 85.333v793.6c0 46.933 38.4 85.333 85.333 85.333zM741.259 960c29.867 0 55.467-25.6 55.467-55.467v-115.2h-110.933v115.2c0 29.867 25.6 55.467 55.467 55.467zM293.259 960c29.867 0 55.467-25.6 55.467-55.467v-115.2h-110.933v115.2c0 29.867 25.6 55.467 55.467 55.467z" />
<glyph unicode="&#xe605;" glyph-name="clone" d="M968.533 413.867l-196.267 196.267c-8.533 8.533-17.067 12.8-29.867 12.8h-102.4v102.4c0 8.533-4.267 21.333-12.8 29.867l-196.267 196.267c0 4.267-12.8 8.533-21.333 8.533h-324.267c-21.333 0-42.667-17.067-42.667-38.4v-605.867c0-21.333 17.067-38.4 38.4-38.4h294.4v-298.667c0-21.333 17.067-38.4 38.4-38.4h524.8c21.333 0 38.4 17.067 38.4 38.4v409.6c4.267 8.533 0 21.333-8.533 25.6zM768 503.467l93.867-93.867h-93.867v93.867zM430.933 840.533l93.867-93.867h-93.867v93.867zM900.267 12.8h-439.467c0 174.933 0 354.133 0 529.067 85.333 0 174.933 0 260.267 0v-157.867c0-12.8 8.533-25.6 25.6-25.6h157.867v-345.6z" />
<glyph unicode="&#xe606;" glyph-name="close" d="M152.982 957.875l868.884-868.884-153.865-153.865-868.884 868.884 153.865 153.865zM871.052 957.824l153.843-153.887-869.007-868.762-153.843 153.887 869.007 868.762z" />
<glyph unicode="&#xe607;" glyph-name="copy" d="M418.133 622.933v0h145.067v76.8h-153.6c-12.8 0-25.6 12.8-25.6 25.6v0 157.867h-260.267v-529.067h256v230.4c0 21.333 17.067 38.4 38.4 38.4v0zM644.267 622.933v0h102.4c12.8 0 21.333-4.267 29.867-12.8l196.267-196.267c8.533-8.533 12.8-17.067 12.8-25.6v0-409.6c0-21.333-17.067-38.4-38.4-38.4v0h-529.067c-21.333 0-38.4 17.067-38.4 38.4v0 298.667h-294.4c-21.333 0-38.4 17.067-38.4 38.4v0 605.867c-4.267 21.333 17.067 38.4 38.4 38.4v0h324.267c12.8 0 21.333-4.267 29.867-12.8l196.267-196.267c4.267-4.267 8.533-17.067 8.533-25.6v0-102.4zM524.8 746.667v0l-93.867 93.867v-93.867h93.867zM900.267 362.667v0h-157.867c-12.8 0-25.6 8.533-25.6 25.6v0 157.867c-85.333 0-174.933 0-260.267 0 0-174.933 0-354.133 0-529.067h443.733v345.6zM861.867 413.867v0l-93.867 89.6v-93.867h93.867v4.267z" />
<glyph unicode="&#xe608;" glyph-name="datasource" d="M209.067 213.333c21.333 0 38.4-8.533 51.2-21.333s21.333-29.867 21.333-51.2c0-17.067-8.533-38.4-21.333-51.2s-29.867-21.333-51.2-21.333-38.4 12.8-51.2 25.6c-12.8 12.8-21.333 29.867-21.333 51.2s8.533 38.4 21.333 51.2c12.8 8.533 29.867 17.067 51.2 17.067v0zM123.733 942.933v0h780.8c34.133 0 64-12.8 85.333-38.4v0c21.333-21.333 34.133-51.2 34.133-85.333v-136.533c0-29.867-12.8-59.733-34.133-81.067 21.333-21.333 34.133-51.2 34.133-81.067v-140.8c0-29.867-12.8-59.733-34.133-81.067 21.333-21.333 34.133-51.2 34.133-81.067v-136.533c0-34.133-12.8-64-34.133-85.333v0c-21.333-21.333-51.2-38.4-85.333-38.4h-780.8c-34.133 0-64 12.8-85.333 38.4v0c-21.333 21.333-34.133 51.2-34.133 85.333v136.533c0 29.867 12.8 59.733 34.133 81.067-25.6 17.067-38.4 46.933-38.4 81.067v140.8c0 29.867 12.8 59.733 34.133 81.067-21.333 21.333-34.133 51.2-34.133 81.067v140.8c0 34.133 12.8 64 34.133 85.333v0c25.6 21.333 55.467 34.133 89.6 34.133v0zM900.267 866.133v0h-776.533c-12.8 0-21.333-4.267-29.867-12.8v0c-8.533-8.533-12.8-21.333-12.8-29.867v-136.533c0-17.067 4.267-25.6 8.533-34.133v0 0c8.533-8.533 17.067-12.8 29.867-12.8v0h780.8c12.8 0 21.333 4.267 29.867 12.8v0 0c8.533 8.533 17.067 17.067 17.067 29.867v140.8c0 12.8-4.267 21.333-12.8 29.867v0c-8.533 8.533-21.333 12.8-34.133 12.8v0zM904.533 563.2v0 0h-780.8c-12.8 0-21.333-4.267-29.867-12.8v0c-8.533-8.533-12.8-21.333-12.8-34.133v-140.8c0-12.8 4.267-21.333 12.8-29.867v0c8.533-8.533 17.067-12.8 29.867-12.8v0h780.8c12.8 0 21.333 4.267 29.867 12.8v0c8.533 8.533 12.8 21.333 12.8 29.867v140.8c0 12.8-4.267 21.333-12.8 29.867v0c-8.533 8.533-21.333 12.8-29.867 17.067v0zM904.533 256v0 0h-780.8c-12.8 0-21.333-4.267-29.867-12.8v0c-8.533-8.533-12.8-17.067-12.8-29.867v-136.533c0-12.8 4.267-21.333 12.8-29.867v0c8.533-8.533 17.067-12.8 29.867-12.8h780.8c12.8 0 21.333 4.267 29.867 12.8v0c8.533 8.533 12.8 17.067 12.8 29.867v136.533c0 12.8-4.267 21.333-12.8 29.867v0c-8.533 8.533-21.333 12.8-29.867 12.8v0zM209.067 823.467v0c21.333 0 38.4-8.533 51.2-21.333v0c12.8-12.8 17.067-29.867 17.067-51.2s-8.533-38.4-21.333-51.2c-8.533-8.533-29.867-17.067-46.933-17.067s-38.4 8.533-51.2 21.333c-12.8 12.8-21.333 29.867-21.333 46.933 0 21.333 8.533 38.4 21.333 51.2v0c12.8 12.8 29.867 21.333 51.2 21.333v0zM226.133 768v0c-4.267 4.267-12.8 8.533-17.067 8.533-8.533 0-12.8-4.267-17.067-8.533s-8.533-8.533-8.533-17.067c0-8.533 4.267-12.8 8.533-17.067v0c4.267-4.267 8.533-8.533 17.067-8.533s12.8 4.267 17.067 8.533v0c4.267 4.267 4.267 12.8 4.267 17.067 0 8.533 0 12.8-4.267 17.067v0 0zM209.067 520.533v0c21.333 0 38.4-8.533 51.2-21.333s21.333-29.867 21.333-51.2c0-21.333-8.533-38.4-21.333-51.2s-29.867-21.333-51.2-21.333-38.4 8.533-51.2 21.333c-12.8 12.8-21.333 29.867-21.333 51.2s8.533 38.4 21.333 51.2c12.8 12.8 29.867 21.333 51.2 21.333v0zM226.133 465.067v0c-4.267 4.267-8.533 8.533-17.067 8.533s-12.8-4.267-17.067-8.533c-4.267-4.267-8.533-8.533-8.533-17.067s4.267-12.8 8.533-17.067c4.267-4.267 8.533-8.533 17.067-8.533s12.8 4.267 17.067 8.533v0c4.267 4.267 8.533 8.533 8.533 17.067-4.267 8.533-4.267 12.8-8.533 17.067v0 0zM226.133 162.133v0c-4.267 4.267-8.533 8.533-17.067 8.533s-12.8-4.267-17.067-8.533c-4.267-4.267-8.533-8.533-8.533-17.067 0-4.267 4.267-12.8 8.533-17.067s8.533-8.533 17.067-8.533c8.533 0 12.8 4.267 17.067 8.533v0c4.267 4.267 8.533 8.533 8.533 17.067-4.267 4.267-4.267 12.8-8.533 17.067v0 0z" />
<glyph unicode="&#xe609;" glyph-name="delete" d="M896 832h-192v128h-384v-128h-192v-192h64v-704h640v704h64v192zM768 0h-512v640h512v-640zM384 512h64v-384h-64v384zM576 512h64v-384h-64v384z" />
<glyph unicode="&#xe60a;" glyph-name="design-dashboard" d="M947.2 665.6l-285.867 285.867c-4.267 4.267-12.8 8.533-25.6 8.533h-465.067c-29.867 0-55.467-12.8-76.8-29.867-17.067-21.333-29.867-46.933-29.867-76.8v-814.933c0-29.867 12.8-55.467 29.867-72.533 21.333-17.067 46.933-29.867 76.8-29.867h682.667c29.867 0 55.467 12.8 72.533 29.867v0c21.333 21.333 29.867 46.933 29.867 72.533v597.333c4.267 8.533 0 21.333-8.533 29.867zM661.333 840.533l179.2-179.2h-140.8c-12.8 0-21.333 4.267-29.867 12.8v0c-8.533 8.533-12.8 17.067-12.8 29.867v136.533zM883.2 42.667c0-8.533-4.267-12.8-8.533-17.067v0c-4.267-4.267-12.8-8.533-17.067-8.533h-686.933c-8.533 0-12.8 4.267-17.067 8.533s-8.533 12.8-8.533 17.067v810.667c0 8.533 4.267 12.8 8.533 17.067 0 8.533 8.533 12.8 17.067 12.8h443.733v-179.2c0-25.6 8.533-46.933 25.6-59.733v0c17.067-17.067 38.4-25.6 64-25.6h179.2v-576zM558.933 546.133l-256-256c0-4.267-4.267-12.8-4.267-17.067v-123.733c0-12.8 12.8-25.6 25.6-25.6h123.733c4.267 0 12.8 4.267 17.067 8.533l256 256c8.533 8.533 8.533 25.6 0 34.133l-123.733 123.733c-12.8 8.533-25.6 8.533-38.4 0zM448 183.467l-89.6 89.6 149.333 149.333 89.6-89.6-149.333-149.333z" />
<glyph unicode="&#xe60b;" glyph-name="disable" d="M827.733 132.267h-631.467c-64 0-119.467 51.2-119.467 119.467v392.533c0 64 51.2 119.467 119.467 119.467h627.2c64 0 119.467-51.2 119.467-119.467v-392.533c0-64-51.2-119.467-115.2-119.467zM196.267 682.667c-21.333 0-38.4-17.067-38.4-38.4v-392.533c0-21.333 17.067-38.4 38.4-38.4h627.2c21.333 0 38.4 17.067 38.4 38.4v392.533c0 21.333-17.067 38.4-38.4 38.4h-627.2zM940.404 960.892l84.475-84.475-941.292-941.292-84.475 84.475 941.292 941.292z" />
<glyph unicode="&#xe60c;" glyph-name="document" d="M170.667 960h465.067c8.533 0 21.333-4.267 25.6-12.8l285.867-285.867c8.533-8.533 12.8-17.067 12.8-25.6v0-593.067c0-29.867-12.8-55.467-29.867-72.533v0 0c-17.067-17.067-42.667-29.867-72.533-29.867h-686.933c-29.867 0-55.467 12.8-72.533 29.867v0c-21.333 17.067-29.867 46.933-29.867 72.533v810.667c0 29.867 12.8 55.467 29.867 76.8 17.067 17.067 42.667 29.867 72.533 29.867v0zM883.2 610.133v0h-179.2c-25.6 0-46.933 8.533-64 25.6v0c-17.067 17.067-25.6 38.4-25.6 64v179.2h-443.733c-8.533 0-17.067 0-21.333-4.267s-8.533-12.8-8.533-21.333v-810.667c0-8.533 4.267-12.8 8.533-17.067v0c4.267-4.267 12.8-8.533 17.067-8.533h686.933c8.533 0 12.8 4.267 17.067 8.533v0c4.267 4.267 8.533 12.8 8.533 17.067v567.467h4.267zM840.533 661.333v0l-183.467 183.467v-140.8c0-12.8 4.267-21.333 12.8-29.867v0c8.533-8.533 21.333-12.8 34.133-12.8h136.533z" />
<glyph unicode="&#xe60d;" glyph-name="down-arrow" d="M704 442.182c-40.727-40.727-87.273-87.273-128-128 0 139.636 0 285.091 0 424.727 0 87.273-133.818 87.273-133.818 0 0-139.636 0-285.091 0-424.727-40.727 40.727-87.273 87.273-128 128-58.182 58.182-151.273-34.909-93.091-93.091 81.455-81.455 162.909-162.909 238.545-238.545 0 0 0 0 0 0s5.818 0 5.818-5.818c23.273-17.455 58.182-17.455 81.455 0 0 0 5.818 0 5.818 5.818 0 0 0 0 0 0 81.455 81.455 162.909 162.909 238.545 238.545 64 64-23.273 157.091-87.273 93.091z" />
<glyph unicode="&#xe60e;" glyph-name="download" d="M473.6 921.6c0 21.333 17.067 38.4 38.4 38.4s38.4-17.067 38.4-38.4v-332.8l106.667 106.667c17.067 17.067 38.4 17.067 55.467 0 17.067-12.8 17.067-38.4 0-55.467l-174.933-174.933c-17.067-12.8-38.4-12.8-55.467 0v0 0 0l-174.933 179.2c-17.067 17.067-17.067 42.667 0 55.467 17.067 17.067 38.4 17.067 55.467 0l106.667-106.667v328.533h4.267zM832 238.933v0c21.333 0 38.4-17.067 38.4-38.4s-17.067-38.4-38.4-38.4c-21.333 0-38.4 17.067-38.4 38.4s17.067 38.4 38.4 38.4v0zM174.933 81.067v0c-12.8 0-25.6 8.533-25.6 21.333s12.8 25.6 25.6 25.6h674.133c12.8 0 21.333-12.8 21.333-25.6s-8.533-21.333-21.333-21.333h-674.133zM102.4 384v0h814.933c29.867 0 51.2-12.8 72.533-29.867 17.067-17.067 29.867-42.667 29.867-72.533v-243.2c0-29.867-12.8-51.2-29.867-72.533-17.067-17.067-42.667-29.867-72.533-29.867h-814.933c-29.867 0-51.2 12.8-72.533 29.867-17.067 17.067-29.867 42.667-29.867 72.533v243.2c0 29.867 12.8 51.2 29.867 72.533 21.333 17.067 46.933 29.867 72.533 29.867v0zM921.6 302.933v0h-819.2c-4.267 0-12.8-4.267-17.067-8.533s-4.267-8.533-4.267-17.067v-243.2c0-4.267 4.267-12.8 4.267-17.067 4.267-4.267 8.533-8.533 17.067-8.533h814.933c4.267 0 12.8 4.267 17.067 8.533s8.533 8.533 8.533 17.067v243.2c0 4.267-4.267 12.8-8.533 17.067-4.267 8.533-8.533 8.533-12.8 8.533v0z" />
<glyph unicode="&#xe60f;" glyph-name="dropdown-arrow" d="M989.867 601.6c55.467 55.467 38.4 102.4-42.667 102.4h-870.4c-81.067 0-98.133-46.933-42.667-102.4l375.467-366.933c55.467-55.467 149.333-55.467 204.8 0l375.467 366.933z" />
<glyph unicode="&#xe610;" glyph-name="edit" d="M827.733 328.533l-72.533 8.533-25.6-64-93.867-4.267-17.067-59.733-93.867-8.533-17.067-55.467-243.2 430.933 320 183.467zM853.333-64l-179.2 81.067 196.267 115.2zM179.2 823.467l226.133 128c25.6 17.067 64 0 85.333-34.133l25.6-42.667-324.267-187.733-29.867 46.933c-17.067 34.133-12.8 72.533 17.067 89.6z" />
<glyph unicode="&#xe611;" glyph-name="e-mail" d="M38.4 849.067v0h947.2c21.333 0 38.4-17.067 38.4-38.4v0-721.067c0-21.333-17.067-38.4-38.4-38.4v0h-947.2c-21.333-4.267-38.4 12.8-38.4 38.4v0 716.8c0 21.333 17.067 42.667 38.4 42.667v0zM947.2 733.867v0l-418.133-413.867c-8.533-8.533-25.6-8.533-34.133 0l-413.867 413.867v-605.867h866.133v605.867zM913.067 768v0h-802.133l401.067-401.067 401.067 401.067z" />
<glyph unicode="&#xe612;" glyph-name="enable" d="M883.2 76.8h-742.4c-76.8 0-140.8 64-140.8 140.8v465.067c0 76.8 64 140.8 140.8 140.8h746.667c76.8 0 140.8-64 140.8-140.8v-465.067c-4.267-81.067-68.267-140.8-145.067-140.8zM140.8 725.333c-25.6 0-46.933-21.333-46.933-46.933v-465.067c0-25.6 21.333-46.933 46.933-46.933h746.667c25.6 0 46.933 21.333 46.933 46.933v469.333c0 25.6-21.333 46.933-46.933 46.933h-746.667zM657.067 593.067c-38.4 38.4-89.6 59.733-145.067 59.733s-106.667-21.333-145.067-59.733c-38.4-38.4-59.733-85.333-59.733-145.067 0-55.467 21.333-106.667 59.733-145.067s89.6-59.733 145.067-59.733c55.467 0 106.667 21.333 145.067 59.733s59.733 89.6 59.733 145.067c-4.267 55.467-25.6 106.667-59.733 145.067zM593.067 366.933c-21.333-21.333-51.2-34.133-81.067-34.133s-59.733 12.8-81.067 34.133c-21.333 21.333-34.133 51.2-34.133 81.067s12.8 59.733 34.133 81.067c21.333 21.333 51.2 34.133 81.067 34.133 34.133 0 59.733-12.8 81.067-34.133v0 0c21.333-21.333 34.133-51.2 34.133-81.067s-12.8-59.733-34.133-81.067z" />
<glyph unicode="&#xe613;" glyph-name="expand" d="M1002.667 396.8l-328.533-328.533c-25.6-25.6-72.533-29.867-102.4 0-25.6 29.867-25.6 72.533 0 102.4l277.333 277.333-277.333 277.333c-12.8 12.8-21.333 29.867-21.333 51.2s8.533 38.4 21.333 51.2c12.8 12.8 34.133 21.333 51.2 21.333 21.333 0 38.4-8.533 51.2-21.333l332.8-328.533c25.6-29.867 25.6-72.533-4.267-102.4zM452.267 396.8l-328.533-328.533c-25.6-25.6-72.533-29.867-102.4 0-25.6 29.867-25.6 72.533 0 102.4l277.333 277.333-277.333 277.333c-29.867 29.867-29.867 72.533 0 102.4 12.8 12.8 34.133 21.333 51.2 21.333 21.333 0 38.4-8.533 51.2-21.333l332.8-328.533c25.6-29.867 25.6-72.533-4.267-102.4z" />
<glyph unicode="&#xe614;" glyph-name="eye" d="M597.333 448c0-47.128-38.205-85.333-85.333-85.333s-85.333 38.205-85.333 85.333c0 47.128 38.205 85.333 85.333 85.333s85.333-38.205 85.333-85.333zM512 789.333c-281.6 0-512-341.333-512-341.333s230.4-341.333 512-341.333c281.6 0 512 341.333 512 341.333s-230.4 341.333-512 341.333zM512 234.667c-119.467 0-213.333 93.867-213.333 213.333s93.867 213.333 213.333 213.333c119.467 0 213.333-93.867 213.333-213.333s-93.867-213.333-213.333-213.333z" />
<glyph unicode="&#xe615;" glyph-name="filter" d="M405.333 499.2v-422.4l221.867-132.267v546.133l396.8 460.8h-1024z" />
<glyph unicode="&#xe616;" glyph-name="folder" d="M38.4 593.067h29.867v260.267c0 21.333 17.067 38.4 38.4 38.4v0h294.4c12.8 0 25.6-4.267 29.867-12.8l136.533-145.067h345.6c21.333 0 38.4-17.067 38.4-38.4v0-93.867h29.867c25.6-8.533 42.667-25.6 42.667-46.933 0-4.267 0-4.267 0-8.533l-64-503.467c0-12.8-8.533-21.333-17.067-29.867s-17.067-12.8-25.6-12.8v0h-810.667c-8.533 0-21.333 4.267-25.6 12.8-8.533 8.533-17.067 17.067-17.067 29.867l-64 507.733c-4.267 21.333 12.8 42.667 34.133 42.667h4.267zM149.333 593.067v0h729.6v59.733h-324.267c-12.8 0-21.333 4.267-29.867 12.8l-136.533 145.067h-238.933v-217.6zM938.667 512v0h-853.333l55.467-426.667h750.933l46.933 426.667z" />
<glyph unicode="&#xe617;" glyph-name="group-1" d="M780.8 34.133c0-17.067-17.067-34.133-34.133-34.133-21.333 0-34.133 17.067-34.133 34.133 0 42.667-17.067 72.533-38.4 93.867-38.4 34.133-89.6 51.2-119.467 51.2-25.6 4.267-46.933 12.8-64 29.867v0c-17.067 17.067-25.6 38.4-25.6 64v12.8c0 12.8 8.533 25.6 17.067 29.867 21.333 17.067 34.133 46.933 46.933 72.533 8.533 21.333 17.067 42.667 34.133 55.467v0 0 0c8.533 8.533 21.333 21.333 25.6 38.4 4.267 12.8 4.267 25.6-4.267 34.133v0 0c-8.533 8.533-8.533 25.6-8.533 38.4v0c8.533 21.333 12.8 42.667 12.8 64 4.267 17.067 4.267 38.4 0 51.2v0c-4.267 21.333-17.067 55.467-42.667 81.067-12.8 12.8-25.6 25.6-34.133 21.333-12.8 0-25.6 0-34.133 4.267s-21.333 12.8-25.6 21.333c-4.267 8.533-17.067 12.8-34.133 17.067-21.333 4.267-42.667 4.267-59.733 4.267-42.667 0-76.8-8.533-102.4-29.867-25.6-17.067-42.667-42.667-55.467-76.8v0 0c-8.533-25.6-12.8-59.733-12.8-85.333 0-29.867 4.267-55.467 12.8-76.8 0-4.267 4.267-8.533 4.267-12.8 0-8.533-4.267-17.067-8.533-25.6v0 0 0c-8.533-8.533-4.267-21.333 0-34.133v0c4.267-17.067 17.067-34.133 25.6-42.667v0l4.267-4.267c12.8-12.8 21.333-34.133 29.867-55.467 12.8-25.6 25.6-59.733 46.933-72.533 12.8-4.267 17.067-17.067 17.067-29.867v0-12.8c0-25.6-8.533-46.933-25.6-64s-38.4-25.6-64-29.867c-29.867-4.267-81.067-17.067-119.467-51.2-25.6-8.533-42.667-42.667-42.667-81.067 0-17.067-17.067-34.133-34.133-34.133s-34.133 17.067-34.133 34.133c0 64 25.6 110.933 59.733 145.067 51.2 46.933 119.467 68.267 162.133 72.533 8.533 0 17.067 4.267 21.333 8.533s4.267 8.533 4.267 12.8c-34.133 25.6-46.933 64-59.733 93.867-4.267 12.8-12.8 25.6-12.8 29.867v0 0 0 0c-38.4 34.133-72.533 102.4-42.667 153.6-12.8 25.6-17.067 55.467-17.067 85.333 0 38.4 4.267 76.8 17.067 110.933 17.067 51.2 46.933 85.333 85.333 110.933s85.333 38.4 140.8 38.4c21.333 0 46.933 0 72.533-4.267 29.867-4.267 59.733-17.067 76.8-42.667 38.4 4.267 68.267-17.067 93.867-46.933 12.8-12.8 21.333-29.867 29.867-46.933 21.333 4.267 46.933 4.267 72.533 0h4.267c34.133-8.533 72.533-25.6 85.333-42.667 29.867 0 59.733-17.067 76.8-42.667 25.6-29.867 42.667-72.533 46.933-98.133 4.267-29.867 0-55.467-8.533-76.8-4.267-8.533-4.267-21.333-4.267-29.867 17.067-25.6 17.067-55.467 4.267-81.067-8.533-21.333-21.333-42.667-38.4-59.733-4.267-4.267-8.533-17.067-12.8-25.6-8.533-25.6-21.333-55.467-46.933-76.8 0-4.267 0-4.267 4.267-4.267 0-4.267 4.267-4.267 12.8-4.267 34.133-4.267 93.867-21.333 136.533-59.733 29.867-29.867 51.2-68.267 51.2-123.733 0-17.067-17.067-34.133-34.133-34.133-21.333 0-34.133 17.067-34.133 34.133 0 34.133-12.8 55.467-29.867 72.533-29.867 25.6-68.267 38.4-93.867 42.667v0c-25.6 4.267-46.933 12.8-59.733 29.867s-21.333 42.667-21.333 64c0 12.8 8.533 25.6 17.067 29.867 17.067 12.8 25.6 34.133 34.133 55.467v0c8.533 21.333 12.8 38.4 29.867 51.2v0 0c8.533 4.267 17.067 17.067 21.333 29.867 4.267 8.533 4.267 17.067 0 21.333s-8.533 12.8-8.533 21.333c0 21.333 4.267 38.4 8.533 59.733 4.267 17.067 8.533 34.133 4.267 51.2s-17.067 46.933-34.133 64c-8.533 8.533-17.067 17.067-25.6 17.067-12.8 0-21.333 0-29.867 4.267v0c-8.533 4.267-17.067 12.8-21.333 21.333v0c-4.267 8.533-25.6 12.8-46.933 21.333h-4.267c-12.8 4.267-25.6 4.267-34.133 4.267v-4.267c4.267-25.6 4.267-46.933 0-72.533-4.267-17.067-4.267-38.4-12.8-59.733 34.133-51.2 0-119.467-38.4-157.867v0 0 0 0c-4.267-4.267-8.533-17.067-12.8-29.867-12.8-29.867-25.6-68.267-59.733-93.867 0-4.267 4.267-8.533 4.267-12.8v0 0c4.267-4.267 12.8-8.533 21.333-8.533 42.667-4.267 110.933-25.6 162.133-72.533 38.4-38.4 64-85.333 64-145.067v0z" />
<glyph unicode="&#xe618;" glyph-name="group-2" d="M780.8 34.133c0-17.067-17.067-34.133-34.133-34.133-21.333 0-34.133 17.067-34.133 34.133 0 42.667-17.067 72.533-38.4 93.867-38.4 34.133-89.6 51.2-119.467 51.2-25.6 4.267-46.933 12.8-64 29.867v0c-17.067 17.067-25.6 38.4-25.6 64v12.8c0 12.8 8.533 25.6 17.067 29.867 21.333 17.067 34.133 46.933 46.933 72.533 8.533 21.333 17.067 42.667 34.133 55.467v0 0 0c8.533 8.533 21.333 21.333 25.6 38.4 4.267 12.8 4.267 25.6-4.267 34.133v0 0c-8.533 8.533-8.533 25.6-8.533 38.4v0c8.533 21.333 12.8 42.667 12.8 64 4.267 17.067 4.267 38.4 0 51.2v0c-4.267 21.333-17.067 55.467-42.667 81.067-12.8 12.8-25.6 25.6-34.133 21.333-12.8 0-25.6 0-34.133 4.267s-21.333 12.8-25.6 21.333c-4.267 8.533-17.067 12.8-34.133 17.067-21.333 4.267-42.667 4.267-59.733 4.267-42.667 0-76.8-8.533-102.4-29.867-25.6-17.067-42.667-42.667-55.467-76.8v0 0c-8.533-25.6-12.8-59.733-12.8-85.333 0-29.867 4.267-55.467 12.8-76.8 0-4.267 4.267-8.533 4.267-12.8 0-8.533-4.267-17.067-8.533-25.6v0 0 0c-8.533-8.533-4.267-21.333 0-34.133v0c4.267-17.067 17.067-34.133 25.6-42.667v0l4.267-4.267c12.8-12.8 21.333-34.133 29.867-55.467 12.8-25.6 25.6-59.733 46.933-72.533 12.8-4.267 17.067-17.067 17.067-29.867v0-12.8c0-25.6-8.533-46.933-25.6-64s-38.4-25.6-64-29.867c-29.867-4.267-81.067-17.067-119.467-51.2-25.6-8.533-42.667-42.667-42.667-81.067 0-17.067-17.067-34.133-34.133-34.133s-34.133 17.067-34.133 34.133c0 64 25.6 110.933 59.733 145.067 51.2 46.933 119.467 68.267 162.133 72.533 8.533 0 17.067 4.267 21.333 8.533s4.267 8.533 4.267 12.8c-34.133 25.6-46.933 64-59.733 93.867-4.267 12.8-12.8 25.6-12.8 29.867v0 0 0 0c-38.4 34.133-72.533 102.4-42.667 153.6-12.8 25.6-17.067 55.467-17.067 85.333 0 38.4 4.267 76.8 17.067 110.933 17.067 51.2 46.933 85.333 85.333 110.933s85.333 38.4 140.8 38.4c21.333 0 46.933 0 72.533-4.267 29.867-4.267 59.733-17.067 76.8-42.667 38.4 4.267 68.267-17.067 93.867-46.933 12.8-12.8 21.333-29.867 29.867-46.933 21.333 4.267 46.933 4.267 72.533 0h4.267c34.133-8.533 72.533-25.6 85.333-42.667 29.867 0 59.733-17.067 76.8-42.667 25.6-29.867 42.667-72.533 46.933-98.133 4.267-29.867 0-55.467-8.533-76.8-4.267-8.533-4.267-21.333-4.267-29.867 17.067-25.6 17.067-55.467 4.267-81.067-8.533-21.333-21.333-42.667-38.4-59.733-4.267-4.267-8.533-17.067-12.8-25.6-8.533-25.6-21.333-55.467-46.933-76.8 0-4.267 0-4.267 4.267-4.267 0-4.267 4.267-4.267 12.8-4.267 34.133-4.267 93.867-21.333 136.533-59.733 29.867-29.867 51.2-68.267 51.2-123.733 0-17.067-17.067-34.133-34.133-34.133-21.333 0-34.133 17.067-34.133 34.133 0 34.133-12.8 55.467-29.867 72.533-29.867 25.6-68.267 38.4-93.867 42.667v0c-25.6 4.267-46.933 12.8-59.733 29.867s-21.333 42.667-21.333 64c0 12.8 8.533 25.6 17.067 29.867 17.067 12.8 25.6 34.133 34.133 55.467v0c8.533 21.333 12.8 38.4 29.867 51.2v0 0c8.533 4.267 17.067 17.067 21.333 29.867 4.267 8.533 4.267 17.067 0 21.333s-8.533 12.8-8.533 21.333c0 21.333 4.267 38.4 8.533 59.733 4.267 17.067 8.533 34.133 4.267 51.2s-17.067 46.933-34.133 64c-8.533 8.533-17.067 17.067-25.6 17.067-12.8 0-21.333 0-29.867 4.267v0c-8.533 4.267-17.067 12.8-21.333 21.333v0c-4.267 8.533-25.6 12.8-46.933 21.333h-4.267c-12.8 4.267-25.6 4.267-34.133 4.267v-4.267c4.267-25.6 4.267-46.933 0-72.533-4.267-17.067-4.267-38.4-12.8-59.733 34.133-51.2 0-119.467-38.4-157.867v0 0 0 0c-4.267-4.267-8.533-17.067-12.8-29.867-12.8-29.867-25.6-68.267-59.733-93.867 0-4.267 4.267-8.533 4.267-12.8v0 0c4.267-4.267 12.8-8.533 21.333-8.533 42.667-4.267 110.933-25.6 162.133-72.533 38.4-38.4 64-85.333 64-145.067v0z" />
<glyph unicode="&#xe619;" glyph-name="login-error" d="M512 960c-281.6 0-512-230.4-512-512s230.4-512 512-512c281.6 0 512 230.4 512 512s-230.4 512-512 512zM512 34.133c-226.133 0-413.867 183.467-413.867 413.867s187.733 413.867 413.867 413.867c226.133 0 413.867-183.467 413.867-413.867s-187.733-413.867-413.867-413.867zM567.467 401.067h-110.933l17.067 345.6h76.8zM456.533 277.333h106.667v-93.867h-106.667v93.867z" />
<glyph unicode="&#xe61a;" glyph-name="logout" d="M473.6 678.4c0 21.333 17.067 38.4 38.4 38.4s38.4-17.067 38.4-38.4v-192c0-21.333-17.067-38.4-38.4-38.4s-38.4 17.067-38.4 38.4v192zM512 960v0c140.8 0 268.8-55.467 362.667-149.333v0c93.867-93.867 149.333-221.867 149.333-362.667s-55.467-268.8-149.333-362.667v0 0c-93.867-93.867-221.867-149.333-362.667-149.333s-268.8 55.467-362.667 149.333v0c-93.867 93.867-149.333 221.867-149.333 362.667s55.467 268.8 149.333 362.667c93.867 93.867 221.867 149.333 362.667 149.333v0zM819.2 755.2v0c-76.8 76.8-187.733 128-307.2 128s-226.133-46.933-307.2-128v0c-76.8-76.8-128-187.733-128-307.2s46.933-226.133 128-307.2v0c76.8-76.8 187.733-128 307.2-128s226.133 46.933 307.2 128v0c76.8 76.8 128 187.733 128 307.2s-51.2 226.133-128 307.2v0 0zM648.533 580.267v0c-17.067 17.067-17.067 38.4 0 55.467s38.4 17.067 55.467 0c12.8-12.8 25.6-25.6 34.133-38.4s17.067-29.867 25.6-46.933c8.533-17.067 12.8-34.133 17.067-51.2s4.267-34.133 4.267-55.467c0-17.067-4.267-34.133-4.267-51.2-4.267-17.067-8.533-34.133-17.067-51.2s-17.067-29.867-25.6-46.933c-8.533-12.8-21.333-29.867-34.133-38.4-12.8-12.8-25.6-21.333-38.4-34.133-12.8-8.533-29.867-17.067-46.933-25.6s-34.133-12.8-51.2-17.067c-17.067-4.267-34.133-4.267-51.2-4.267s-34.133 4.267-55.467 4.267c-17.067 4.267-34.133 8.533-51.2 17.067s-29.867 17.067-46.933 25.6c-12.8 8.533-29.867 21.333-38.4 34.133-12.8 12.8-21.333 25.6-34.133 38.4-8.533 12.8-17.067 29.867-25.6 46.933s-12.8 34.133-17.067 51.2c-4.267 17.067-4.267 34.133-4.267 51.2s0 34.133 4.267 55.467c4.267 21.333 8.533 38.4 17.067 55.467s17.067 29.867 25.6 46.933c8.533 12.8 17.067 25.6 29.867 38.4 17.067 17.067 38.4 17.067 55.467 0s17.067-38.4 0-55.467c-8.533-8.533-12.8-21.333-21.333-29.867-8.533-12.8-12.8-21.333-17.067-34.133s-8.533-21.333-12.8-34.133c-4.267-12.8-4.267-25.6-4.267-38.4s0-25.6 4.267-38.4c4.267-12.8 8.533-25.6 12.8-38.4 4.267-8.533 8.533-21.333 17.067-29.867s12.8-21.333 25.6-29.867c8.533-8.533 17.067-17.067 29.867-21.333 8.533-8.533 21.333-12.8 34.133-17.067s21.333-8.533 34.133-8.533c12.8-4.267 25.6-4.267 38.4-4.267s25.6 0 38.4 4.267c12.8 0 25.6 4.267 38.4 8.533 8.533 4.267 21.333 8.533 29.867 17.067s21.333 12.8 29.867 21.333c8.533 8.533 17.067 17.067 21.333 29.867 8.533 8.533 12.8 21.333 17.067 29.867 4.267 12.8 8.533 25.6 12.8 38.4s4.267 25.6 4.267 38.4c0 12.8 0 25.6-4.267 38.4s-4.267 25.6-12.8 34.133c-8.533 12.8-12.8 21.333-21.333 34.133-4.267 8.533-12.8 21.333-21.333 25.6v0z" />
<glyph unicode="&#xe61b;" glyph-name="move" d="M123.733 960h465.067c12.8 0 21.333-4.267 29.867-12.8l285.867-285.867c8.533-8.533 12.8-17.067 12.8-25.6v0-64c0-21.333-17.067-38.4-38.4-38.4s-38.4 17.067-38.4 38.4v42.667h-179.2c-25.6 0-46.933 8.533-64 25.6v0c-17.067 17.067-25.6 38.4-25.6 64v179.2h-448c-4.267 0-12.8-4.267-17.067-8.533s-8.533-12.8-8.533-21.333v-814.933c0-8.533 4.267-12.8 8.533-17.067v0c4.267-4.267 12.8-8.533 17.067-8.533h686.933c8.533 0 12.8 4.267 17.067 8.533v0c4.267 4.267 8.533 12.8 8.533 17.067v25.6c0 21.333 17.067 38.4 38.4 38.4s38.4-17.067 38.4-38.4v-21.333c0-29.867-12.8-55.467-29.867-72.533v0c-17.067-21.333-42.667-34.133-72.533-34.133h-686.933c-29.867 0-55.467 12.8-72.533 29.867s-29.867 46.933-29.867 72.533v814.933c0 29.867 12.8 55.467 29.867 72.533 17.067 21.333 46.933 34.133 72.533 34.133v0zM763.733 567.467v0 0l230.4-230.4c8.533-8.533 8.533-25.6 0-34.133l-230.4-230.4c-8.533-8.533-25.6-8.533-34.133 0-4.267 0-4.267 8.533-4.267 12.8v115.2h-166.4c-12.8 0-25.6 8.533-25.6 25.6v0 187.733c0 12.8 12.8 21.333 25.6 21.333v0h166.4v115.2c0 12.8 8.533 25.6 21.333 25.6 8.533-4.267 12.8-4.267 17.067-8.533v0zM947.2 320v0l-174.933 174.933v-81.067c0-12.8-12.8-25.6-25.6-25.6h-166.4v-140.8h166.4c12.8 0 25.6-12.8 25.6-25.6v-81.067l174.933 179.2zM797.867 661.333v0l-183.467 183.467v-140.8c0-12.8 4.267-21.333 12.8-29.867v0c8.533-8.533 21.333-12.8 29.867-12.8h140.8z" />
<glyph unicode="&#xe61c;" glyph-name="open" d="M930.133 537.6c-21.333 0-38.4 17.067-38.4 38.4v187.733c0 21.333-17.067 38.4-38.4 38.4h-375.467c-21.333 0-38.4 12.8-38.4 29.867s-12.8 29.867-34.133 29.867h-238.933c-21.333 0-38.4-17.067-38.4-38.4v-247.467c0-21.333-17.067-38.4-38.4-38.4h-55.467c-21.333 0-34.133-17.067-29.867-38.4l59.733-430.933c4.267-21.333 21.333-38.4 42.667-38.4h819.2c21.333 0 38.4 17.067 42.667 38.4l55.467 435.2c4.267 21.333-12.8 38.4-29.867 38.4h-64zM196.267 759.467c0 21.333 17.067 38.4 38.4 38.4h106.667c21.333 0 38.4-12.8 38.4-29.867s17.067-29.867 38.4-29.867h375.467c21.333 0 38.4-17.067 38.4-38.4v-123.733c0-21.333-17.067-38.4-38.4-38.4h-554.667c-25.6 0-42.667 17.067-42.667 38.4v183.467zM896 149.333c-4.267-21.333-21.333-38.4-42.667-38.4h-682.667c-21.333 0-38.4 17.067-42.667 38.4l-42.667 277.333c-4.267 21.333 12.8 38.4 29.867 38.4h789.333c21.333 0 34.133-17.067 29.867-38.4l-38.4-277.333zM913.067 85.333h-802.133l-51.2 396.8h891.733z" />
<glyph unicode="&#xe61d;" glyph-name="options" d="M614.4 857.6c0-56.554-45.846-102.4-102.4-102.4s-102.4 45.846-102.4 102.4c0 56.554 45.846 102.4 102.4 102.4s102.4-45.846 102.4-102.4zM614.4 448c0-56.554-45.846-102.4-102.4-102.4s-102.4 45.846-102.4 102.4c0 56.554 45.846 102.4 102.4 102.4s102.4-45.846 102.4-102.4zM614.4 38.4c0-56.554-45.846-102.4-102.4-102.4s-102.4 45.846-102.4 102.4c0 56.554 45.846 102.4 102.4 102.4s102.4-45.846 102.4-102.4z" />
<glyph unicode="&#xe61e;" glyph-name="palette" d="M452.267 631.467c0 29.867-12.8 55.467-34.133 76.8-17.067 21.333-46.933 34.133-76.8 34.133s-55.467-12.8-76.8-29.867v0c-21.333-21.333-34.133-51.2-34.133-81.067s12.8-59.733 34.133-76.8c21.333-21.333 46.933-34.133 76.8-34.133s59.733 12.8 76.8 34.133c21.333 17.067 34.133 46.933 34.133 76.8v0zM388.267 588.8v0c-12.8-12.8-29.867-21.333-46.933-21.333s-29.867 8.533-42.667 21.333v0 0c-12.8 12.8-17.067 25.6-17.067 42.667s8.533 34.133 17.067 42.667v0c12.8 12.8 25.6 17.067 42.667 17.067s34.133-8.533 42.667-17.067c12.8-8.533 17.067-25.6 17.067-42.667 4.267-17.067-4.267-34.133-12.8-42.667v0zM699.733 588.8v0c-21.333-21.333-34.133-46.933-34.133-76.8s12.8-59.733 34.133-76.8c21.333-21.333 46.933-34.133 76.8-34.133s59.733 12.8 76.8 34.133c21.333 21.333 34.133 46.933 34.133 76.8s-12.8 59.733-34.133 76.8c-17.067 17.067-42.667 29.867-76.8 29.867-29.867 0-55.467-12.8-76.8-29.867v0zM840.533 507.733v0c0-17.067-8.533-34.133-17.067-42.667-12.8-12.8-25.6-17.067-42.667-17.067s-34.133 8.533-42.667 17.067c-12.8 12.8-17.067 25.6-17.067 42.667s8.533 34.133 17.067 46.933c12.8 12.8 25.6 17.067 42.667 17.067s34.133-8.533 42.667-17.067c12.8-12.8 17.067-29.867 17.067-46.933v0zM452.267 337.067v0c-59.733 0-106.667-51.2-106.667-106.667 0-59.733 46.933-106.667 106.667-106.667s106.667 51.2 106.667 106.667c0 55.467-46.933 106.667-106.667 106.667v0zM452.267 200.533v0c-17.067 0-29.867 12.8-29.867 29.867s12.8 29.867 29.867 29.867c17.067 0 29.867-12.8 29.867-29.867s-12.8-29.867-29.867-29.867v0zM891.733 763.733v0c-81.067 93.867-196.267 157.867-332.8 170.667-81.067 8.533-166.4-8.533-238.933-38.4-76.8-34.133-145.067-81.067-200.533-145.067-64-76.8-106.667-174.933-115.2-277.333-8.533-98.133 8.533-196.267 55.467-290.133 25.6-46.933 55.467-85.333 93.867-119.467 38.4-38.4 85.333-64 123.733-81.067 34.133-12.8 68.267-21.333 106.667-21.333v0c51.2-4.267 106.667 4.267 149.333 25.6 46.933 21.333 89.6 59.733 106.667 110.933 8.533 21.333 12.8 42.667 12.8 64 0 29.867 8.533 51.2 12.8 59.733 4.267 4.267 8.533 8.533 12.8 8.533 21.333 0 51.2-12.8 85.333-25.6l21.333-8.533c89.6-34.133 149.333-21.333 187.733 25.6 34.133 38.4 42.667 102.4 42.667 179.2 8.533 140.8-42.667 264.533-123.733 362.667v0zM921.6 273.067v0c-12.8-17.067-42.667-21.333-98.133 0v0l-21.333 8.533c-42.667 17.067-81.067 34.133-119.467 29.867-29.867 0-55.467-12.8-72.533-42.667-17.067-21.333-25.6-55.467-29.867-102.4 0-17.067-4.267-29.867-8.533-42.667-12.8-34.133-38.4-55.467-68.267-68.267-34.133-17.067-72.533-21.333-110.933-17.067-29.867 0-59.733 8.533-85.333 17.067-34.133 12.8-68.267 34.133-98.133 64-34.133 29.867-59.733 64-81.067 102.4-42.667 76.8-55.467 162.133-46.933 243.2 8.533 85.333 42.667 170.667 98.133 234.667 42.667 51.2 102.4 93.867 166.4 119.467s136.533 38.4 204.8 34.133c110.933-12.8 209.067-64 281.6-145.067s115.2-192 115.2-307.2c0-55.467-8.533-106.667-25.6-128v0zM716.8 691.2v0c0 29.867-12.8 59.733-34.133 76.8-21.333 21.333-46.933 34.133-76.8 34.133s-59.733-12.8-76.8-34.133c-21.333-21.333-34.133-46.933-34.133-76.8s12.8-59.733 34.133-76.8c21.333-21.333 46.933-34.133 76.8-34.133s59.733 12.8 76.8 34.133c21.333 21.333 34.133 46.933 34.133 76.8v0zM652.8 648.533v0c-12.8-12.8-25.6-17.067-42.667-17.067s-34.133 8.533-42.667 17.067c-12.8 12.8-17.067 25.6-17.067 42.667s8.533 34.133 17.067 42.667c12.8 12.8 25.6 17.067 42.667 17.067s34.133-8.533 42.667-17.067c12.8-12.8 17.067-25.6 17.067-42.667s-8.533-29.867-17.067-42.667v0zM230.4 516.267v0c-29.867 0-55.467-12.8-76.8-29.867v0c-21.333-21.333-34.133-46.933-34.133-76.8s12.8-59.733 34.133-76.8c21.333-21.333 46.933-34.133 76.8-34.133s59.733 12.8 76.8 34.133c21.333 12.8 34.133 42.667 34.133 72.533s-12.8 59.733-34.133 76.8c-17.067 21.333-46.933 34.133-76.8 34.133v0zM277.333 358.4v0c-12.8-12.8-25.6-17.067-42.667-17.067s-34.133 8.533-42.667 17.067v0 0c-12.8 12.8-17.067 25.6-17.067 42.667s8.533 34.133 17.067 42.667v0c12.8 8.533 25.6 17.067 42.667 17.067s34.133-8.533 42.667-17.067c12.8-12.8 17.067-25.6 17.067-42.667 0-12.8-8.533-29.867-17.067-42.667v0z" />
<glyph unicode="&#xe61f;" glyph-name="play" d="M337.067-64c-21.333 0-42.667 4.267-59.733 12.8-59.733 25.6-98.133 81.067-98.133 145.067v708.267c0 64 38.4 119.467 98.133 145.067s123.733 12.8 170.667-34.133l354.133-354.133c59.733-59.733 59.733-162.133 0-221.867l-354.133-354.133c-34.133-29.867-72.533-46.933-110.933-46.933zM337.067 874.667c-12.8 0-21.333 0-29.867-4.267-29.867-12.8-42.667-38.4-42.667-68.267v-708.267c0-29.867 17.067-55.467 42.667-68.267 29.867-8.533 55.467-4.267 76.8 17.067l354.133 354.133c29.867 29.867 29.867 72.533 0 102.4l-354.133 354.133c-12.8 12.8-29.867 21.333-46.933 21.333z" />
<glyph unicode="&#xe620;" glyph-name="report" d="M204.8 588.8c34.133 0 64-25.6 76.8-55.467l93.867-25.6 89.6 145.067c12.8 21.333 38.4 25.6 55.467 12.8v0l149.333-102.4 119.467 209.067c-4.267 12.8-8.533 25.6-8.533 38.4 0 21.333 8.533 42.667 21.333 55.467s34.133 21.333 55.467 21.333c42.667 0 76.8-34.133 76.8-76.8 0-21.333-8.533-42.667-21.333-55.467s-34.133-21.333-51.2-21.333l-140.8-247.467c0 0 0-4.267-4.267-4.267-12.8-17.067-38.4-21.333-55.467-8.533l-153.6 102.4-55.467-85.333 51.2-17.067c4.267 0 8.533-4.267 12.8-8.533l170.667-128 93.867 12.8c12.8 29.867 38.4 46.933 72.533 46.933 21.333 0 42.667-8.533 55.467-21.333s21.333-34.133 21.333-55.467c0-42.667-34.133-76.8-76.8-76.8-21.333 0-42.667 8.533-55.467 21.333l-4.267 4.267-106.667-17.067c-8.533 0-21.333 0-29.867 8.533l-179.2 132.267-68.267 17.067-132.267-217.6c4.267-8.533 8.533-21.333 8.533-34.133 0-21.333-8.533-42.667-21.333-55.467s-34.133-21.333-55.467-21.333c-42.667 0-76.8 34.133-76.8 76.8s29.867 76.8 72.533 76.8v0l123.733 200.533-72.533 21.333c-12.8-12.8-34.133-21.333-51.2-21.333-42.667 0-76.8 34.133-76.8 76.8s34.133 76.8 76.8 76.8v0zM25.6-64v0h977.067c12.8 0 25.6 12.8 25.6 25.6s-12.8 25.6-25.6 25.6h-955.733v947.2c0 12.8-8.533 25.6-21.333 25.6s-25.6-12.8-25.6-25.6v-972.8c0-12.8 12.8-25.6 25.6-25.6v0z" />
<glyph unicode="&#xe621;" glyph-name="roll-back" d="M413.867 738.133v0 0 72.533l-12.8-17.067-59.733-55.467 59.733-55.467 12.8-12.8v68.267zM499.2 780.8v0c42.667-4.267 81.067-17.067 119.467-29.867 51.2-21.333 98.133-51.2 136.533-93.867 38.4-38.4 68.267-85.333 89.6-136.533v0c21.333-51.2 29.867-102.4 29.867-157.867s-12.8-110.933-34.133-162.133v0c-21.333-51.2-51.2-98.133-89.6-136.533l-4.267-4.267c-38.4-38.4-85.333-68.267-136.533-89.6-42.667-21.333-98.133-34.133-153.6-34.133s-110.933 12.8-162.133 34.133v0c-51.2 21.333-98.133 51.2-136.533 93.867-17.067 17.067-17.067 46.933 0 64s46.933 17.067 64 0c29.867-29.867 68.267-55.467 106.667-72.533v0c38.4-17.067 81.067-25.6 128-25.6s89.6 8.533 128 25.6c38.4 17.067 76.8 38.4 106.667 72.533v4.267c29.867 29.867 55.467 68.267 72.533 106.667v0c17.067 38.4 25.6 81.067 25.6 128 0 42.667-8.533 85.333-25.6 128v0c-17.067 42.667-42.667 76.8-72.533 106.667v0c-29.867 29.867-68.267 55.467-106.667 72.533-25.6 12.8-55.467 17.067-85.333 21.333v-132.267c0-25.6-21.333-42.667-42.667-42.667-12.8 0-21.333 4.267-29.867 12.8l-89.6 85.333-89.6 89.6c-17.067 17.067-17.067 46.933 0 64v0l89.6 89.6 89.6 85.333c17.067 17.067 46.933 17.067 64 0 8.533-8.533 12.8-21.333 12.8-29.867v0-136.533h-4.267z" />
<glyph unicode="&#xe622;" glyph-name="search" d="M998.4 81.067l-243.2 243.2c-4.267 4.267-4.267 4.267-8.533 8.533 42.667 64 64 140.8 64 221.867 0 221.867-183.467 405.333-405.333 405.333s-405.333-183.467-405.333-405.333c0-221.867 183.467-405.333 405.333-405.333 81.067 0 157.867 25.6 221.867 64 4.267-4.267 4.267-4.267 8.533-8.533l243.2-243.2c17.067-17.067 38.4-25.6 59.733-25.6s42.667 8.533 59.733 25.6c34.133 34.133 34.133 85.333 0 119.467zM405.333 277.333c-153.6 0-277.333 123.733-277.333 277.333s123.733 277.333 277.333 277.333c153.6 0 277.333-123.733 277.333-277.333s-123.733-277.333-277.333-277.333z" />
<glyph unicode="&#xe623;" glyph-name="settings-1" d="M998.4 529.067h-128c-8.533 38.4-25.6 76.8-46.933 110.933l89.6 89.6c8.533 8.533 8.533 25.6 0 34.133l-81.067 81.067c-4.267 4.267-12.8 8.533-17.067 8.533-8.533 0-12.8-4.267-17.067-8.533l-89.6-93.867c-34.133 21.333-72.533 38.4-110.933 46.933v128c0 12.8-12.8 25.6-25.6 25.6h-115.2c-12.8 0-25.6-12.8-25.6-25.6v-128c-42.667 0-81.067-17.067-115.2-38.4l-89.6 89.6c-4.267 8.533-12.8 8.533-17.067 8.533s-12.8-4.267-17.067-8.533l-81.067-81.067c-8.533-4.267-8.533-8.533-8.533-17.067s4.267-12.8 8.533-17.067l89.6-89.6c-21.333-34.133-38.4-72.533-46.933-110.933h-128c-12.8 0-25.6-12.8-25.6-25.6v-115.2c0-12.8 12.8-25.6 25.6-25.6h128c8.533-38.4 25.6-76.8 46.933-110.933l-89.6-89.6c-8.533-8.533-8.533-25.6 0-34.133l81.067-81.067c4.267-4.267 12.8-8.533 17.067-8.533 8.533 0 12.8 4.267 17.067 8.533l89.6 89.6c34.133-21.333 72.533-38.4 110.933-46.933v-128c0-12.8 12.8-25.6 25.6-25.6h115.2c12.8 0 25.6 12.8 25.6 25.6v128c38.4 8.533 76.8 25.6 110.933 46.933l89.6-89.6c4.267-4.267 12.8-8.533 17.067-8.533s12.8 4.267 17.067 8.533l81.067 81.067c4.267 4.267 8.533 12.8 8.533 17.067 0 8.533-4.267 12.8-8.533 17.067l-89.6 89.6c21.333 34.133 38.4 72.533 46.933 110.933h128c12.8 0 25.6 12.8 25.6 25.6v115.2c4.267 12.8-8.533 21.333-21.333 21.333zM716.8 448c0-110.933-89.6-204.8-204.8-204.8s-204.8 93.867-204.8 204.8 93.867 204.8 204.8 204.8 204.8-93.867 204.8-204.8z" />
<glyph unicode="&#xe624;" glyph-name="settings-2" d="M512 631.467c51.2 0 98.133-21.333 132.267-55.467s55.467-81.067 55.467-132.267c0-51.2-21.333-98.133-55.467-132.267s-81.067-55.467-132.267-55.467c-51.2 0-98.133 21.333-132.267 55.467s-55.467 81.067-55.467 132.267c0 51.2 21.333 98.133 55.467 132.267s81.067 55.467 132.267 55.467v0zM622.933 857.6v0c17.067-4.267 34.133-12.8 51.2-17.067 17.067-8.533 34.133-17.067 51.2-25.6l42.667 42.667c17.067 17.067 42.667 17.067 55.467 4.267l102.4-102.4c12.8-17.067 12.8-38.4 0-55.467l-42.667-42.667c8.533-17.067 17.067-34.133 25.6-51.2s12.8-34.133 17.067-51.2h59.733c21.333 0 38.4-17.067 38.4-38.4v-145.067c0-21.333-17.067-38.4-38.4-38.4h-59.733c-4.267-17.067-12.8-34.133-17.067-51.2v0c-8.533-17.067-12.8-34.133-21.333-46.933l42.667-42.667c17.067-17.067 17.067-38.4 0-55.467l-102.4-102.4c-17.067-17.067-42.667-17.067-59.733-4.267l-42.667 42.667c-17.067-8.533-34.133-17.067-51.2-25.6s-34.133-12.8-51.2-17.067v-59.733c0-21.333-17.067-38.4-38.4-38.4h-145.067c-21.333 0-38.4 17.067-38.4 38.4v0 59.733c-17.067 4.267-34.133 12.8-51.2 17.067-17.067 12.8-34.133 21.333-51.2 29.867l-42.667-42.667c-17.067-17.067-42.667-17.067-55.467-4.267l-98.133 102.4c-17.067 17.067-17.067 38.4-4.267 55.467l42.667 42.667c-8.533 17.067-17.067 34.133-25.6 51.2s-12.8 34.133-17.067 51.2h-59.733c-21.333 0-38.4 17.067-38.4 38.4v140.8c0 21.333 17.067 38.4 38.4 38.4h59.733c8.533 21.333 12.8 38.4 21.333 55.467s12.8 34.133 25.6 51.2l-42.667 42.667c-17.067 17.067-17.067 38.4-4.267 55.467l98.133 98.133c21.333 17.067 42.667 17.067 59.733 4.267l42.667-42.667c17.067 4.267 34.133 12.8 51.2 21.333s34.133 12.8 51.2 17.067v64c0 21.333 17.067 38.4 38.4 38.4v0h140.8c21.333 0 38.4-17.067 38.4-38.4v0-64h4.267zM644.267 768v0c-21.333 8.533-42.667 17.067-64 21.333s-34.133 21.333-34.133 38.4v51.2h-64v-55.467c0-17.067-12.8-34.133-34.133-38.4-25.6 0-46.933-8.533-68.267-17.067s-42.667-21.333-64-34.133v0c-17.067-8.533-34.133-8.533-51.2 4.267l-38.4 38.4-42.667-42.667 38.4-38.4c12.8-12.8 17.067-34.133 4.267-51.2-12.8-21.333-25.6-42.667-34.133-64s-17.067-42.667-21.333-64c-4.267-21.333-17.067-34.133-38.4-34.133h-55.467v-64h55.467c17.067 0 34.133-12.8 38.4-34.133s12.8-46.933 21.333-68.267c8.533-21.333 21.333-42.667 34.133-64v0 0c8.533-12.8 8.533-34.133-4.267-51.2l-38.4-38.4 46.933-42.667 38.4 38.4c12.8 12.8 34.133 17.067 51.2 4.267 21.333-12.8 42.667-25.6 64-34.133s42.667-17.067 64-21.333c21.333 0 34.133-17.067 34.133-38.4v-55.467h64v55.467c0 17.067 12.8 34.133 34.133 38.4 25.6 4.267 46.933 12.8 68.267 21.333s42.667 21.333 64 34.133v0 0c12.8 8.533 34.133 8.533 51.2-4.267l38.4-38.4 46.933 42.667-38.4 38.4c-12.8 12.8-17.067 34.133-4.267 51.2s25.6 38.4 34.133 64v0c8.533 21.333 17.067 42.667 21.333 68.267 4.267 21.333 17.067 34.133 38.4 34.133h55.467v64h-55.467c-17.067 0-34.133 12.8-38.4 34.133-4.267 25.6-12.8 46.933-21.333 68.267s-21.333 42.667-34.133 64v0c-8.533 17.067-8.533 34.133 4.267 51.2l38.4 38.4-46.933 46.933-38.4-38.4c-12.8-12.8-34.133-17.067-51.2-4.267-25.6 4.267-46.933 17.067-68.267 25.6v0zM610.133 546.133v0c-25.6 25.6-59.733 38.4-98.133 38.4s-72.533-17.067-98.133-38.4c-25.6-25.6-38.4-59.733-38.4-98.133s17.067-72.533 38.4-98.133c25.6-25.6 59.733-38.4 98.133-38.4s72.533 17.067 98.133 38.4c25.6 25.6 38.4 59.733 38.4 98.133s-12.8 72.533-38.4 98.133v0z" />
<glyph unicode="&#xe625;" glyph-name="share" d="M0 507.733l196.267-119.467v-392.533l273.067 234.667 315.733-157.867 238.933 827.733-1024-392.533zM277.333 153.6v196.267l627.2 430.933-627.2-627.2z" />
<glyph unicode="&#xe626;" glyph-name="sort" d="M162.133 691.2h-157.867l264.533 268.8 268.8-268.8h-157.867v-426.667l-217.6-217.6zM861.867 204.8h157.867l-264.533-268.8-268.8 268.8h157.867v426.667l217.6 217.6z" />
<glyph unicode="&#xe627;" glyph-name="status-active" d="M1024 448c0-282.77-229.23-512-512-512s-512 229.23-512 512c0 282.77 229.23 512 512 512s512-229.23 512-512z" />
<glyph unicode="&#xe628;" glyph-name="status-finished" d="M1024 448c0-282.77-229.23-512-512-512s-512 229.23-512 512c0 282.77 229.23 512 512 512s512-229.23 512-512z" />
<glyph unicode="&#xe629;" glyph-name="status-inactive" d="M1024 448c0-282.77-229.23-512-512-512s-512 229.23-512 512c0 282.77 229.23 512 512 512s512-229.23 512-512z" />
<glyph unicode="&#xe62a;" glyph-name="stop-watch" d="M691.2 682.667l-4.267 4.267c0 0-4.267 0-4.267 0l-4.267 4.267c0 0-4.267 0-4.267 0-12.8 4.267-29.867 4.267-42.667-4.267l-4.267-4.267c0 0-4.267 0-4.267-4.267l-204.8-166.4c-4.267-4.267-8.533-8.533-12.8-8.533v0c-4.267-4.267-8.533-8.533-8.533-8.533-8.533-4.267-12.8-8.533-12.8-12.8-21.333-29.867-34.133-68.267-29.867-106.667 0-4.267 0-8.533 0-17.067 0-4.267 0-8.533 4.267-12.8 0-4.267 4.267-8.533 4.267-12.8 17.067-46.933 51.2-81.067 98.133-93.867 4.267 0 8.533-4.267 12.8-4.267s12.8-4.267 17.067-4.267v0c4.267 0 8.533 0 12.8 0v0c4.267 0 8.533 0 12.8 0s8.533 0 17.067 0c51.2 8.533 98.133 42.667 119.467 93.867 8.533 12.8 12.8 29.867 12.8 46.933l42.667 264.533c4.267 12.8 0 34.133-17.067 46.933v0 0zM631.467 375.467v0 0 0c0-17.067-8.533-29.867-17.067-46.933-4.267-4.267-4.267-8.533-4.267-8.533-17.067-21.333-38.4-38.4-64-46.933-4.267 0-8.533 0-12.8-4.267-4.267 0-8.533 0-12.8 0s-8.533 0-8.533 0v0c-4.267 0-8.533 0-8.533 0v0c-4.267 0-8.533 0-12.8 0s-8.533 0-12.8 4.267-8.533 4.267-12.8 4.267-8.533 4.267-12.8 4.267c-17.067 8.533-29.867 25.6-42.667 38.4 0 0-4.267 8.533-4.267 8.533 0 4.267-4.267 8.533-4.267 8.533 0 4.267 0 8.533-4.267 12.8 0 4.267-4.267 8.533-4.267 12.8s0 8.533 0 12.8c-4.267 34.133 12.8 68.267 38.4 93.867v0c4.267 4.267 4.267 4.267 8.533 8.533v0l204.8 166.4c12.8 8.533 25.6 0 25.6-12.8l-38.4-256zM853.333 682.667v0l38.4 38.4c12.8 12.8 12.8 34.133 0 46.933s-34.133 12.8-51.2 0l-38.4-38.4c-68.267 59.733-157.867 102.4-256 106.667v55.467h38.4c21.333 0 34.133 17.067 34.133 34.133s-12.8 34.133-29.867 34.133h-149.333c-21.333 0-38.4-17.067-38.4-34.133s17.067-34.133 34.133-34.133h38.4v-51.2c-106.667-12.8-204.8-59.733-281.6-132.267v0c-81.067-81.067-132.267-196.267-132.267-320s51.2-238.933 132.267-320v0c81.067-81.067 196.267-132.267 320-132.267s234.667 51.2 315.733 128h4.267c81.067 81.067 132.267 196.267 132.267 320 0 115.2-42.667 217.6-110.933 298.667v0zM780.8 115.2v0 0c-72.533-68.267-166.4-110.933-268.8-110.933-106.667 0-200.533 42.667-268.8 110.933-68.267 72.533-115.2 166.4-115.2 273.067s42.667 200.533 110.933 268.8v0c72.533 68.267 166.4 110.933 273.067 110.933s200.533-42.667 268.8-110.933v0c72.533-68.267 115.2-166.4 115.2-268.8 0-106.667-46.933-200.533-115.2-273.067v0zM550.4 452.267v0c-34.133 21.333-85.333 8.533-102.4-29.867-21.333-34.133-8.533-85.333 25.6-102.4 38.4-21.333 85.333-8.533 102.4 25.6 21.333 38.4 8.533 85.333-25.6 106.667v0zM541.867 371.2v0c-8.533-17.067-29.867-21.333-46.933-12.8s-21.333 29.867-12.8 46.933c8.533 17.067 29.867 21.333 46.933 12.8s21.333-29.867 12.8-46.933v0z" />
<glyph unicode="&#xe62b;" glyph-name="tick" d="M396.8-64c-29.867 0-55.467 12.8-72.533 34.133l-238.933 247.467c-38.4 42.667-38.4 106.667 4.267 145.067s106.667 38.4 145.067-4.267l140.8-149.333 401.067 699.733c29.867 51.2 89.6 68.267 140.8 38.4 46.933-29.867 64-89.6 34.133-140.8l-469.333-819.2c-17.067-29.867-42.667-46.933-76.8-51.2-4.267 0-4.267 0-8.533 0z" />
<glyph unicode="&#xe62c;" glyph-name="url" d="M38.4 900.267v0h947.2c21.333 0 38.4-17.067 38.4-38.4v0-823.467c0-21.333-17.067-38.4-38.4-38.4v0h-947.2c-21.333 0-38.4 17.067-38.4 38.4v0 823.467c0 21.333 17.067 38.4 38.4 38.4v0zM883.2 780.8v0c21.333 0 38.4-17.067 38.4-38.4s-17.067-38.4-38.4-38.4c-21.333 0-38.4 17.067-38.4 38.4s17.067 38.4 38.4 38.4v0zM785.067 780.8v0c21.333 0 38.4-17.067 38.4-38.4s-17.067-38.4-38.4-38.4c-21.333 0-38.4 17.067-38.4 38.4s17.067 38.4 38.4 38.4v0zM691.2 780.8v0c21.333 0 38.4-17.067 38.4-38.4s-17.067-38.4-38.4-38.4c-21.333 0-38.4 17.067-38.4 38.4s17.067 38.4 38.4 38.4v0zM76.8 657.067v0h866.133v166.4h-866.133v-166.4zM942.933 610.133v0h-866.133v-537.6h866.133v537.6zM392.533 486.4v-179.2c0-29.867-8.533-55.467-29.867-72.533s-46.933-25.6-81.067-25.6c-34.133 0-59.733 8.533-76.8 25.6-21.333 17.067-29.867 42.667-29.867 72.533v179.2h55.467v-179.2c0-17.067 4.267-34.133 12.8-42.667s21.333-12.8 38.4-12.8c17.067 0 29.867 4.267 38.4 12.8s12.8 25.6 12.8 42.667v179.2h59.733zM494.933 324.267v-110.933h-55.467v273.067h93.867c29.867 0 55.467-8.533 72.533-21.333s25.6-34.133 25.6-59.733c0-12.8-4.267-25.6-12.8-38.4s-17.067-17.067-34.133-25.6c17.067-4.267 25.6-12.8 34.133-25.6s8.533-25.6 8.533-42.667v-21.333c0-8.533 0-17.067 4.267-25.6 0-8.533 4.267-12.8 8.533-17.067v-4.267h-55.467c-4.267 4.267-8.533 8.533-8.533 21.333 0 8.533-4.267 17.067-4.267 25.6v21.333c0 12.8-4.267 25.6-12.8 29.867-8.533 8.533-17.067 12.8-29.867 12.8h-34.133zM494.933 366.933h38.4c17.067 0 25.6 4.267 34.133 8.533s12.8 17.067 12.8 29.867c0 12.8-4.267 21.333-12.8 29.867s-17.067 12.8-34.133 12.8h-38.4v-81.067zM742.4 256h123.733v-42.667h-174.933v273.067h55.467v-230.4z" />
<glyph unicode="&#xe62d;" glyph-name="user-1" d="M145.067-25.6c0-21.333-17.067-38.4-38.4-38.4s-38.4 17.067-38.4 38.4c0 72.533 29.867 123.733 68.267 166.4 55.467 55.467 136.533 76.8 183.467 81.067 8.533 0 17.067 4.267 25.6 8.533 4.267 4.267 4.267 8.533 8.533 12.8-38.4 29.867-55.467 72.533-68.267 106.667-8.533 17.067-12.8 29.867-17.067 34.133v0 0 0 0c-17.067 17.067-38.4 42.667-51.2 76.8-17.067 38.4-21.333 72.533-4.267 106.667-8.533 29.867-12.8 59.733-12.8 93.867 0 42.667 4.267 85.333 21.333 123.733v4.267c17.067 55.467 51.2 98.133 93.867 123.733 42.667 29.867 98.133 42.667 162.133 46.933 21.333 0 55.467 0 85.333-4.267 34.133-4.267 68.267-21.333 89.6-46.933 42.667 4.267 76.8-21.333 106.667-51.2 34.133-38.4 59.733-98.133 64-132.267 4.267-25.6 4.267-51.2 0-81.067-8.533-25.6-12.8-51.2-21.333-72.533 21.333-34.133 17.067-72.533 4.267-102.4-12.8-34.133-34.133-59.733-51.2-76.8v0 0 0c-4.267-4.267-8.533-17.067-17.067-34.133-12.8-34.133-29.867-76.8-68.267-106.667 0-4.267 4.267-8.533 8.533-12.8s12.8-8.533 25.6-8.533c46.933-4.267 123.733-29.867 183.467-81.067 38.4-38.4 68.267-93.867 68.267-166.4 0-21.333-17.067-38.4-38.4-38.4s-38.4 17.067-38.4 38.4c0 46.933-21.333 81.067-46.933 106.667-42.667 38.4-98.133 59.733-136.533 59.733-29.867 4.267-55.467 12.8-72.533 34.133-21.333 21.333-51.2 98.133-12.8 123.733 25.6 17.067 42.667 51.2 55.467 81.067 12.8 25.6 21.333 51.2 38.4 64v0 0c8.533 8.533 25.6 25.6 29.867 46.933 4.267 12.8 8.533 29.867-4.267 38.4v0c-4.267 8.533-8.533 25.6-4.267 42.667 8.533 25.6 12.8 46.933 17.067 68.267s4.267 38.4 0 59.733c-4.267 25.6-21.333 64-46.933 93.867-12.8 17.067-29.867 25.6-38.4 25.6-12.8 0-25.6 0-38.4 4.267-8.533 4.267-21.333 12.8-25.6 21.333l-4.267 4.267c-4.267 8.533-21.333 12.8-38.4 17.067-21.333 4.267-51.2 4.267-68.267 4.267-46.933 0-85.333-8.533-119.467-29.867-34.133-17.067-55.467-46.933-68.267-85.333v-4.267c-8.533-29.867-17.067-64-17.067-98.133v0c0-29.867 4.267-59.733 17.067-81.067 4.267-8.533 4.267-17.067 4.267-25.6-4.267-25.6-25.6-25.6-12.8-59.733 8.533-17.067 21.333-34.133 29.867-46.933v0 0c17.067-17.067 25.6-38.4 38.4-64 12.8-29.867 25.6-64 55.467-81.067 12.8-4.267 21.333-17.067 21.333-34.133 0-34.133-4.267-64-29.867-89.6-17.067-17.067-42.667-29.867-72.533-34.133-34.133-4.267-93.867-21.333-132.267-59.733-29.867-29.867-51.2-64-51.2-110.933v0z" />
<glyph unicode="&#xe62e;" glyph-name="user-add" d="M977.067 149.333h-85.333v85.333c0 25.6-17.067 42.667-42.667 42.667s-42.667-17.067-42.667-42.667v-85.333h-85.333c-25.6 0-42.667-17.067-42.667-42.667s17.067-42.667 42.667-42.667h85.333v-85.333c0-25.6 17.067-42.667 42.667-42.667s42.667 17.067 42.667 42.667v85.333h85.333c25.6 0 42.667 17.067 42.667 42.667s-17.067 42.667-42.667 42.667zM704 192h42.667c-38.4 17.067-76.8 29.867-106.667 29.867-8.533 0-17.067 4.267-25.6 8.533v0 0c-4.267 4.267-4.267 8.533-8.533 12.8 34.133 29.867 51.2 72.533 68.267 106.667 8.533 17.067 12.8 34.133 17.067 34.133v0 0 0c46.933 42.667 81.067 119.467 42.667 179.2 8.533 25.6 12.8 46.933 12.8 68.267 4.267 29.867 4.267 55.467 0 81.067v0 4.267c0 0-8.533 42.667-29.867 76.8-12.8 17.067-21.333 38.4-34.133 51.2-29.867 34.133-64 55.467-106.667 51.2-21.333 29.867-55.467 42.667-89.6 46.933-21.333 17.067-55.467 17.067-76.8 17.067-59.733 0-115.2-17.067-157.867-46.933s-76.8-68.267-93.867-128c-17.067-38.4-21.333-81.067-21.333-123.733 0-34.133 4.267-64 17.067-98.133-34.133-59.733 4.267-136.533 46.933-174.933v0 0c4.267-4.267 8.533-17.067 17.067-34.133 12.8-34.133 29.867-76.8 68.267-106.667 0-4.267-4.267-8.533-8.533-12.8s-12.8-8.533-25.6-8.533c-42.667-8.533-123.733-34.133-179.2-85.333-42.667-38.4-68.267-93.867-68.267-166.4 0-21.333 17.067-38.4 38.4-38.4s38.4 17.067 38.4 38.4c0 46.933 17.067 81.067 46.933 106.667 42.667 38.4 98.133 59.733 132.267 59.733 29.867 4.267 55.467 12.8 72.533 34.133 17.067 17.067 29.867 42.667 29.867 72.533v12.8c0 12.8-8.533 25.6-21.333 34.133-29.867 17.067-42.667 55.467-55.467 85.333-8.533 25.6-17.067 46.933-34.133 64v4.267c-8.533 8.533-25.6 25.6-29.867 46.933v0c-4.267 12.8-4.267 29.867 0 38.4v0 0c8.533 8.533 8.533 17.067 8.533 29.867 0 4.267 0 8.533-4.267 17.067-8.533 21.333-12.8 51.2-12.8 81.067 0 34.133 4.267 68.267 17.067 98.133 12.8 42.667 34.133 72.533 64 89.6 29.867 21.333 72.533 29.867 119.467 29.867 21.333 0 46.933 0 68.267-4.267 17.067 0 29.867-4.267 38.4-12.8 8.533-12.8 17.067-21.333 29.867-25.6s25.6-8.533 38.4-4.267c12.8 4.267 25.6-8.533 38.4-25.6 25.6-29.867 42.667-72.533 46.933-93.867v0c4.267-17.067 4.267-38.4 0-59.733s-8.533-46.933-17.067-68.267c-4.267-12.8 0-34.133 8.533-42.667v0 0c8.533-8.533 8.533-25.6 4.267-38.4-8.533-17.067-21.333-34.133-29.867-42.667v0 0c-17.067-17.067-25.6-38.4-38.4-64-12.8-29.867-25.6-64-51.2-81.067-12.8-8.533-21.333-21.333-21.333-34.133v-17.067c0-29.867 12.8-55.467 29.867-72.533v0c17.067-17.067 42.667-29.867 72.533-34.133 4.267 0 8.533 0 12.8 0 4.267 12.8 29.867 34.133 59.733 34.133z" />
<glyph unicode="&#xe62f;" glyph-name="user-block" d="M635.733 409.6v-76.8c12.8-4.267 29.867-12.8 46.933-21.333s38.4-17.067 55.467-25.6c17.067-8.533 38.4-17.067 59.733-25.6s38.4-17.067 55.467-21.333c17.067-8.533 34.133-12.8 46.933-21.333 12.8-4.267 25.6-8.533 34.133-12.8 17.067-8.533 34.133-17.067 46.933-29.867s21.333-25.6 25.6-42.667c8.533-17.067 12.8-34.133 17.067-51.2v-85.333h-1024v85.333c4.267 17.067 8.533 34.133 17.067 51.2 8.533 12.8 17.067 29.867 25.6 42.667 12.8 12.8 25.6 21.333 42.667 29.867 8.533 4.267 21.333 8.533 34.133 12.8 17.067 4.267 29.867 12.8 51.2 21.333 17.067 8.533 38.4 17.067 59.733 25.6s42.667 17.067 59.733 25.6c21.333 8.533 38.4 17.067 55.467 25.6s34.133 17.067 46.933 21.333v76.8c0 4.267-4.267 8.533-4.267 17.067s-4.267 12.8-4.267 21.333c0 4.267 0 17.067-4.267 25.6-12.8 25.6-21.333 51.2-29.867 81.067s-12.8 59.733-12.8 93.867c0 42.667 4.267 81.067 12.8 110.933s21.333 55.467 38.4 76.8c17.067 21.333 34.133 34.133 55.467 42.667s46.933 12.8 68.267 12.8c25.6 0 46.933-4.267 68.267-12.8s42.667-21.333 55.467-42.667c17.067-17.067 29.867-42.667 38.4-76.8 8.533-29.867 12.8-68.267 12.8-115.2 0-34.133-4.267-64-12.8-93.867s-17.067-55.467-29.867-81.067c-4.267-12.8-8.533-21.333-8.533-29.867-4.267-8.533-4.267-17.067-8.533-25.6 8.533 0 8.533-4.267 8.533-8.533z" />
<glyph unicode="&#xe630;" glyph-name="user-swap" d="M132.267-21.333c0-21.333-17.067-38.4-38.4-38.4s-38.4 17.067-38.4 38.4c0 72.533 29.867 123.733 68.267 162.133 55.467 55.467 136.533 76.8 179.2 81.067 8.533 0 17.067 4.267 21.333 8.533s4.267 8.533 8.533 17.067c-34.133 29.867-51.2 72.533-64 106.667-17.067 42.667-51.2 68.267-68.267 110.933-12.8 34.133-17.067 68.267 0 102.4-8.533 29.867-12.8 59.733-12.8 93.867 0 93.867 34.133 196.267 115.2 251.733 68.267 46.933 166.4 55.467 243.2 38.4 34.133-4.267 68.267-21.333 89.6-46.933 42.667 4.267 76.8-21.333 106.667-51.2 72.533-85.333 81.067-183.467 51.2-281.6 21.333-34.133 17.067-72.533 4.267-102.4-17.067-42.667-51.2-68.267-68.267-110.933-17.067-38.4-34.133-89.6-85.333-119.467-17.067-12.8-42.667-4.267-51.2 12.8-12.8 17.067-4.267 42.667 12.8 51.2 29.867 17.067 42.667 51.2 51.2 81.067 17.067 42.667 55.467 72.533 68.267 110.933 4.267 12.8 8.533 29.867-4.267 38.4v0 0c-8.533 8.533-12.8 29.867-8.533 46.933 25.6 76.8 29.867 153.6-29.867 221.867-12.8 17.067-29.867 25.6-38.4 25.6-25.6-4.267-51.2 8.533-68.267 29.867v4.267c-4.267 8.533-21.333 12.8-38.4 17.067-59.733 8.533-136.533 4.267-187.733-29.867-64-38.4-85.333-119.467-85.333-187.733 0-29.867 4.267-59.733 17.067-85.333 4.267-4.267 4.267-12.8 4.267-17.067 0-8.533-4.267-17.067-8.533-25.6v0 0c-8.533-8.533-8.533-25.6-4.267-38.4 17.067-38.4 51.2-68.267 68.267-110.933 12.8-29.867 25.6-64 55.467-81.067 12.8-8.533 21.333-21.333 21.333-34.133 0-29.867-8.533-59.733-25.6-81.067s-42.667-34.133-76.8-38.4c-34.133-4.267-93.867-21.333-132.267-59.733-29.867-25.6-51.2-64-51.2-110.933v0zM661.333 162.133v0c-4.267 4.267-8.533 8.533-8.533 17.067s4.267 12.8 8.533 17.067l59.733 59.733c8.533 8.533 25.6 8.533 34.133 0s8.533-25.6 0-34.133l-21.333-21.333h213.333c12.8 0 21.333-12.8 21.333-25.6s-8.533-21.333-21.333-21.333h-213.333l21.333-21.333c8.533-8.533 8.533-25.6 0-34.133s-25.6-8.533-34.133 0l-59.733 64zM968.533 29.867v0 0 0c0-4.267 0-4.267 0-4.267v0 0 0c0 0 0-4.267 0-4.267v0c0-4.267-4.267-8.533-4.267-8.533l-64-64c-8.533-8.533-25.6-8.533-34.133 0s-8.533 25.6 0 34.133l21.333 21.333h-213.333c-12.8 0-21.333 8.533-21.333 25.6 0 12.8 8.533 21.333 21.333 21.333h213.333l-21.333 21.333c-8.533 8.533-8.533 25.6 0 34.133s25.6 8.533 34.133 0l59.733-59.733c4.267-12.8 8.533-12.8 8.533-17.067v0z" />
<glyph unicode="&#xe631;" glyph-name="versions" d="M763.733 311.467v533.333c0 21.333-17.067 38.4-38.4 38.4h-682.667c-25.6 0-42.667-17.067-42.667-38.4v-533.333c0-21.333 17.067-38.4 38.4-38.4h682.667c25.6 0 42.667 17.067 42.667 38.4zM682.667 349.867v0h-605.867v456.533h605.867v-456.533zM985.6 622.933v0c-21.333 0-38.4-17.067-38.4-38.4v-494.933h-644.267c-21.333 0-38.4-17.067-38.4-38.4s17.067-38.4 38.4-38.4h682.667c21.333 0 38.4 17.067 38.4 38.4v533.333c0 21.333-17.067 38.4-38.4 38.4zM853.333 140.8v0c21.333 0 38.4 17.067 38.4 38.4v533.333c0 21.333-17.067 38.4-38.4 38.4s-38.4-17.067-38.4-38.4v-494.933h-644.267c-21.333 0-38.4-17.067-38.4-38.4s17.067-38.4 38.4-38.4h682.667z" />
<glyph unicode="&#xe632;" glyph-name="wifi" d="M42.667 580.267c-25.6 0-42.667 17.067-42.667 42.667 0 21.333 17.067 42.667 42.667 42.667h8.533c187.733 0 358.4-76.8 482.133-200.533v0 0c123.733-123.733 200.533-294.4 200.533-482.133 0-25.6-17.067-42.667-42.667-42.667-21.333 0-42.667 17.067-42.667 42.667 0 166.4-68.267 315.733-174.933 422.4s-256 174.933-422.4 174.933v0h-8.533zM200.533 337.067v0c55.467 0 102.4-21.333 140.8-59.733v0c34.133-34.133 59.733-85.333 59.733-140.8s-21.333-106.667-59.733-140.8c-34.133-34.133-85.333-59.733-140.8-59.733s-106.667 21.333-140.8 59.733c-34.133 34.133-59.733 85.333-59.733 140.8s21.333 106.667 59.733 140.8c34.133 38.4 85.333 59.733 140.8 59.733v0zM277.333 221.867v0c-21.333 21.333-46.933 34.133-81.067 34.133-29.867 0-59.733-12.8-81.067-34.133-17.067-21.333-29.867-51.2-29.867-81.067s12.8-59.733 34.133-81.067c21.333-21.333 46.933-34.133 81.067-34.133 29.867 0 59.733 12.8 81.067 34.133 17.067 21.333 29.867 46.933 29.867 81.067 0 29.867-12.8 59.733-34.133 81.067v0 0 0zM42.667 870.4v0c-25.6 0-42.667 17.067-42.667 42.667 0 21.333 17.067 42.667 42.667 42.667h8.533c268.8 0 512-110.933 686.933-285.867s285.867-418.133 285.867-686.933v0c0-25.6-17.067-42.667-42.667-42.667s-42.667 17.067-42.667 42.667v0c0 243.2-98.133 465.067-260.267 627.2-157.867 162.133-379.733 260.267-627.2 260.267v0h-8.533z" />
</font>
</defs>
</svg>
